<mxfile host="Electron" agent="Mozilla/5.0 (Windows NT 10.0; Win64; x64) AppleWebKit/537.36 (KHTML, like Gecko) draw.io/24.7.17 Chrome/128.0.6613.36 Electron/32.0.1 Safari/537.36" version="24.7.17">
  <diagram id="C5RBs43oDa-KdzZeNtuy" name="Page-1">
    <mxGraphModel dx="1434" dy="836" grid="1" gridSize="10" guides="1" tooltips="1" connect="1" arrows="1" fold="1" page="1" pageScale="1" pageWidth="1169" pageHeight="827" math="0" shadow="0">
      <root>
        <mxCell id="WIyWlLk6GJQsqaUBKTNV-0" />
        <mxCell id="WIyWlLk6GJQsqaUBKTNV-1" parent="WIyWlLk6GJQsqaUBKTNV-0" />
        <mxCell id="WIyWlLk6GJQsqaUBKTNV-3" value="&lt;font style=&quot;font-size: 17px;&quot;&gt;Forward&lt;/font&gt;" style="rounded=1;whiteSpace=wrap;html=1;fontSize=12;glass=0;strokeWidth=1;shadow=0;fillColor=#dae8fc;strokeColor=#6c8ebf;" parent="WIyWlLk6GJQsqaUBKTNV-1" vertex="1">
          <mxGeometry x="295" y="80" width="120" height="40" as="geometry" />
        </mxCell>
        <mxCell id="YMXGo382ZEX8tGyxw3O1-1" value="&lt;font style=&quot;font-size: 17px;&quot;&gt;Backward&lt;/font&gt;" style="rounded=1;whiteSpace=wrap;html=1;fontSize=12;glass=0;strokeWidth=1;shadow=0;fillColor=#dae8fc;strokeColor=#6c8ebf;" vertex="1" parent="WIyWlLk6GJQsqaUBKTNV-1">
          <mxGeometry x="860" y="80" width="120" height="40" as="geometry" />
        </mxCell>
        <mxCell id="YMXGo382ZEX8tGyxw3O1-11" value="" style="edgeStyle=orthogonalEdgeStyle;rounded=0;orthogonalLoop=1;jettySize=auto;html=1;" edge="1" parent="WIyWlLk6GJQsqaUBKTNV-1" source="YMXGo382ZEX8tGyxw3O1-2" target="YMXGo382ZEX8tGyxw3O1-10">
          <mxGeometry relative="1" as="geometry" />
        </mxCell>
        <mxCell id="YMXGo382ZEX8tGyxw3O1-2" value="" style="rounded=1;whiteSpace=wrap;html=1;shadow=0;glass=0;fillColor=#d5e8d4;strokeColor=#82b366;" vertex="1" parent="WIyWlLk6GJQsqaUBKTNV-1">
          <mxGeometry x="50" y="159" width="610" height="111" as="geometry" />
        </mxCell>
        <mxCell id="YMXGo382ZEX8tGyxw3O1-4" value="&lt;font color=&quot;#0000ff&quot;&gt;pre_unshard&lt;/font&gt;" style="text;html=1;align=center;verticalAlign=middle;whiteSpace=wrap;rounded=0;" vertex="1" parent="WIyWlLk6GJQsqaUBKTNV-1">
          <mxGeometry x="56" y="159" width="90" height="30" as="geometry" />
        </mxCell>
        <mxCell id="YMXGo382ZEX8tGyxw3O1-7" value="" style="edgeStyle=orthogonalEdgeStyle;rounded=0;orthogonalLoop=1;jettySize=auto;html=1;" edge="1" parent="WIyWlLk6GJQsqaUBKTNV-1" source="YMXGo382ZEX8tGyxw3O1-5" target="YMXGo382ZEX8tGyxw3O1-6">
          <mxGeometry relative="1" as="geometry" />
        </mxCell>
        <mxCell id="YMXGo382ZEX8tGyxw3O1-5" value="&lt;font color=&quot;#ff00ff&quot;&gt;sharded_tensor:&lt;/font&gt;&lt;div&gt;handle._local_shard=&lt;/div&gt;&lt;div&gt;handle.flat_param&lt;/div&gt;&lt;div&gt;(此时dtype=fp32)&lt;/div&gt;" style="rounded=1;whiteSpace=wrap;html=1;" vertex="1" parent="WIyWlLk6GJQsqaUBKTNV-1">
          <mxGeometry x="60" y="190" width="160" height="60" as="geometry" />
        </mxCell>
        <mxCell id="YMXGo382ZEX8tGyxw3O1-9" value="" style="edgeStyle=orthogonalEdgeStyle;rounded=0;orthogonalLoop=1;jettySize=auto;html=1;" edge="1" parent="WIyWlLk6GJQsqaUBKTNV-1" source="YMXGo382ZEX8tGyxw3O1-6" target="YMXGo382ZEX8tGyxw3O1-8">
          <mxGeometry relative="1" as="geometry" />
        </mxCell>
        <mxCell id="YMXGo382ZEX8tGyxw3O1-6" value="&lt;font color=&quot;#ff00ff&quot;&gt;lp_sharded_tensor:&lt;/font&gt;&lt;div&gt;handle.flat_param.&lt;/div&gt;&lt;div&gt;_mp_shard&lt;span style=&quot;background-color: initial;&quot;&gt;.copy_(_local_shard)&lt;/span&gt;&lt;/div&gt;&lt;div&gt;(此时dtype=fp16)&lt;/div&gt;" style="rounded=1;whiteSpace=wrap;html=1;" vertex="1" parent="WIyWlLk6GJQsqaUBKTNV-1">
          <mxGeometry x="250" y="190" width="180" height="60" as="geometry" />
        </mxCell>
        <mxCell id="YMXGo382ZEX8tGyxw3O1-8" value="&lt;font color=&quot;#1a1a1a&quot;&gt;flat_pram.data = flat_param._mp_shard&lt;/font&gt;&lt;div&gt;&lt;font color=&quot;#1a1a1a&quot;&gt;(fp16)&lt;/font&gt;&lt;/div&gt;" style="rounded=1;whiteSpace=wrap;html=1;" vertex="1" parent="WIyWlLk6GJQsqaUBKTNV-1">
          <mxGeometry x="460" y="190" width="180" height="60" as="geometry" />
        </mxCell>
        <mxCell id="YMXGo382ZEX8tGyxw3O1-20" value="" style="edgeStyle=orthogonalEdgeStyle;rounded=0;orthogonalLoop=1;jettySize=auto;html=1;" edge="1" parent="WIyWlLk6GJQsqaUBKTNV-1" source="YMXGo382ZEX8tGyxw3O1-10" target="YMXGo382ZEX8tGyxw3O1-19">
          <mxGeometry relative="1" as="geometry" />
        </mxCell>
        <mxCell id="YMXGo382ZEX8tGyxw3O1-10" value="" style="whiteSpace=wrap;html=1;fillColor=#f8cecc;rounded=1;shadow=0;glass=0;strokeColor=#b85450;" vertex="1" parent="WIyWlLk6GJQsqaUBKTNV-1">
          <mxGeometry x="68" y="325" width="574" height="130" as="geometry" />
        </mxCell>
        <mxCell id="YMXGo382ZEX8tGyxw3O1-12" value="&lt;font color=&quot;#0000cc&quot;&gt;unshard: 在fp16下all_gather&lt;/font&gt;" style="text;html=1;align=center;verticalAlign=middle;whiteSpace=wrap;rounded=0;" vertex="1" parent="WIyWlLk6GJQsqaUBKTNV-1">
          <mxGeometry x="68" y="325" width="172" height="30" as="geometry" />
        </mxCell>
        <mxCell id="YMXGo382ZEX8tGyxw3O1-16" style="edgeStyle=orthogonalEdgeStyle;rounded=0;orthogonalLoop=1;jettySize=auto;html=1;" edge="1" parent="WIyWlLk6GJQsqaUBKTNV-1" source="YMXGo382ZEX8tGyxw3O1-13" target="YMXGo382ZEX8tGyxw3O1-14">
          <mxGeometry relative="1" as="geometry">
            <Array as="points">
              <mxPoint x="355" y="395" />
              <mxPoint x="283" y="395" />
            </Array>
          </mxGeometry>
        </mxCell>
        <mxCell id="YMXGo382ZEX8tGyxw3O1-13" value="dist.all_gather_into_tensor(padded_unsharded_flat_param, flat_param.data, pg)" style="rounded=1;whiteSpace=wrap;html=1;" vertex="1" parent="WIyWlLk6GJQsqaUBKTNV-1">
          <mxGeometry x="135" y="351" width="440" height="30" as="geometry" />
        </mxCell>
        <mxCell id="YMXGo382ZEX8tGyxw3O1-18" value="" style="edgeStyle=orthogonalEdgeStyle;rounded=0;orthogonalLoop=1;jettySize=auto;html=1;" edge="1" parent="WIyWlLk6GJQsqaUBKTNV-1" source="YMXGo382ZEX8tGyxw3O1-14" target="YMXGo382ZEX8tGyxw3O1-17">
          <mxGeometry relative="1" as="geometry" />
        </mxCell>
        <mxCell id="YMXGo382ZEX8tGyxw3O1-14" value="flat_param.data=unpadded_unsharded_flat_param" style="rounded=1;whiteSpace=wrap;html=1;" vertex="1" parent="WIyWlLk6GJQsqaUBKTNV-1">
          <mxGeometry x="135" y="410" width="295" height="30" as="geometry" />
        </mxCell>
        <mxCell id="YMXGo382ZEX8tGyxw3O1-17" value="views" style="rounded=1;whiteSpace=wrap;html=1;" vertex="1" parent="WIyWlLk6GJQsqaUBKTNV-1">
          <mxGeometry x="510" y="410" width="70" height="30" as="geometry" />
        </mxCell>
        <mxCell id="YMXGo382ZEX8tGyxw3O1-25" value="" style="edgeStyle=orthogonalEdgeStyle;rounded=0;orthogonalLoop=1;jettySize=auto;html=1;" edge="1" parent="WIyWlLk6GJQsqaUBKTNV-1" source="YMXGo382ZEX8tGyxw3O1-19" target="YMXGo382ZEX8tGyxw3O1-24">
          <mxGeometry relative="1" as="geometry" />
        </mxCell>
        <mxCell id="YMXGo382ZEX8tGyxw3O1-19" value="" style="whiteSpace=wrap;html=1;fillColor=#d5e8d4;rounded=1;shadow=0;glass=0;strokeColor=#82b366;" vertex="1" parent="WIyWlLk6GJQsqaUBKTNV-1">
          <mxGeometry x="187.5" y="508" width="335" height="86" as="geometry" />
        </mxCell>
        <mxCell id="YMXGo382ZEX8tGyxw3O1-21" value="Split" style="text;html=1;align=center;verticalAlign=middle;whiteSpace=wrap;rounded=0;" vertex="1" parent="WIyWlLk6GJQsqaUBKTNV-1">
          <mxGeometry x="450" y="395" width="50" height="30" as="geometry" />
        </mxCell>
        <mxCell id="YMXGo382ZEX8tGyxw3O1-22" value="&lt;font color=&quot;#0000ff&quot;&gt;post_unshard: 释放fp16 sharded_tensor;&lt;/font&gt;&lt;div&gt;&lt;font color=&quot;#0000ff&quot;&gt;fp32 sharded_tensor 还在 _local_shard&lt;/font&gt;&lt;/div&gt;" style="text;html=1;align=center;verticalAlign=middle;whiteSpace=wrap;rounded=0;" vertex="1" parent="WIyWlLk6GJQsqaUBKTNV-1">
          <mxGeometry x="187.5" y="508" width="250" height="30" as="geometry" />
        </mxCell>
        <mxCell id="YMXGo382ZEX8tGyxw3O1-23" value="_free_storage(self.flat_param._mp_shard)" style="rounded=1;whiteSpace=wrap;html=1;" vertex="1" parent="WIyWlLk6GJQsqaUBKTNV-1">
          <mxGeometry x="207.5" y="548" width="295" height="30" as="geometry" />
        </mxCell>
        <mxCell id="YMXGo382ZEX8tGyxw3O1-29" value="" style="edgeStyle=orthogonalEdgeStyle;rounded=0;orthogonalLoop=1;jettySize=auto;html=1;" edge="1" parent="WIyWlLk6GJQsqaUBKTNV-1" source="YMXGo382ZEX8tGyxw3O1-24" target="YMXGo382ZEX8tGyxw3O1-28">
          <mxGeometry relative="1" as="geometry" />
        </mxCell>
        <mxCell id="YMXGo382ZEX8tGyxw3O1-24" value="" style="whiteSpace=wrap;html=1;fillColor=#f8cecc;strokeColor=#b85450;rounded=1;shadow=0;glass=0;" vertex="1" parent="WIyWlLk6GJQsqaUBKTNV-1">
          <mxGeometry x="237.5" y="650" width="235" height="93" as="geometry" />
        </mxCell>
        <mxCell id="YMXGo382ZEX8tGyxw3O1-26" value="&lt;font color=&quot;#0000ff&quot;&gt;reshard:&lt;/font&gt;" style="text;html=1;align=center;verticalAlign=middle;whiteSpace=wrap;rounded=0;" vertex="1" parent="WIyWlLk6GJQsqaUBKTNV-1">
          <mxGeometry x="237.5" y="649" width="62.5" height="30" as="geometry" />
        </mxCell>
        <mxCell id="YMXGo382ZEX8tGyxw3O1-27" value="&lt;font color=&quot;#1a1a1a&quot;&gt;flat_pram.data = flat_param._local_shard&lt;/font&gt;&lt;div&gt;&lt;font color=&quot;#1a1a1a&quot;&gt;(fp32)&lt;/font&gt;&lt;/div&gt;" style="rounded=1;whiteSpace=wrap;html=1;" vertex="1" parent="WIyWlLk6GJQsqaUBKTNV-1">
          <mxGeometry x="280" y="676" width="180" height="60" as="geometry" />
        </mxCell>
        <mxCell id="YMXGo382ZEX8tGyxw3O1-41" value="" style="edgeStyle=orthogonalEdgeStyle;rounded=0;orthogonalLoop=1;jettySize=auto;html=1;" edge="1" parent="WIyWlLk6GJQsqaUBKTNV-1" source="YMXGo382ZEX8tGyxw3O1-28" target="YMXGo382ZEX8tGyxw3O1-40">
          <mxGeometry relative="1" as="geometry" />
        </mxCell>
        <mxCell id="YMXGo382ZEX8tGyxw3O1-28" value="" style="whiteSpace=wrap;html=1;fillColor=#d5e8d4;strokeColor=#82b366;rounded=1;shadow=0;glass=0;" vertex="1" parent="WIyWlLk6GJQsqaUBKTNV-1">
          <mxGeometry x="720" y="650" width="420" height="93" as="geometry" />
        </mxCell>
        <mxCell id="YMXGo382ZEX8tGyxw3O1-30" value="&lt;font color=&quot;#0000ff&quot;&gt;_pre_backward_hook: flat_param(unshard fp16); _local_shard(shard fp32)&lt;/font&gt;" style="text;html=1;align=center;verticalAlign=middle;whiteSpace=wrap;rounded=0;" vertex="1" parent="WIyWlLk6GJQsqaUBKTNV-1">
          <mxGeometry x="720" y="650" width="420" height="30" as="geometry" />
        </mxCell>
        <mxCell id="YMXGo382ZEX8tGyxw3O1-38" style="edgeStyle=orthogonalEdgeStyle;rounded=0;orthogonalLoop=1;jettySize=auto;html=1;exitX=1;exitY=0.5;exitDx=0;exitDy=0;entryX=0;entryY=0.5;entryDx=0;entryDy=0;" edge="1" parent="WIyWlLk6GJQsqaUBKTNV-1" source="YMXGo382ZEX8tGyxw3O1-31" target="YMXGo382ZEX8tGyxw3O1-34">
          <mxGeometry relative="1" as="geometry" />
        </mxCell>
        <mxCell id="YMXGo382ZEX8tGyxw3O1-31" value="&lt;font color=&quot;#1a1a1a&quot;&gt;pre_unshard&lt;/font&gt;" style="rounded=1;whiteSpace=wrap;html=1;" vertex="1" parent="WIyWlLk6GJQsqaUBKTNV-1">
          <mxGeometry x="740" y="686" width="100" height="40" as="geometry" />
        </mxCell>
        <mxCell id="YMXGo382ZEX8tGyxw3O1-39" style="edgeStyle=orthogonalEdgeStyle;rounded=0;orthogonalLoop=1;jettySize=auto;html=1;exitX=1;exitY=0.5;exitDx=0;exitDy=0;" edge="1" parent="WIyWlLk6GJQsqaUBKTNV-1" source="YMXGo382ZEX8tGyxw3O1-34" target="YMXGo382ZEX8tGyxw3O1-35">
          <mxGeometry relative="1" as="geometry" />
        </mxCell>
        <mxCell id="YMXGo382ZEX8tGyxw3O1-34" value="&lt;font color=&quot;#1a1a1a&quot;&gt;unshard&lt;/font&gt;" style="rounded=1;whiteSpace=wrap;html=1;" vertex="1" parent="WIyWlLk6GJQsqaUBKTNV-1">
          <mxGeometry x="895" y="686" width="80" height="40" as="geometry" />
        </mxCell>
        <mxCell id="YMXGo382ZEX8tGyxw3O1-35" value="&lt;font color=&quot;#1a1a1a&quot;&gt;post_unshard&lt;/font&gt;" style="rounded=1;whiteSpace=wrap;html=1;" vertex="1" parent="WIyWlLk6GJQsqaUBKTNV-1">
          <mxGeometry x="1020" y="686" width="100" height="40" as="geometry" />
        </mxCell>
        <mxCell id="YMXGo382ZEX8tGyxw3O1-45" value="" style="edgeStyle=orthogonalEdgeStyle;rounded=0;orthogonalLoop=1;jettySize=auto;html=1;" edge="1" parent="WIyWlLk6GJQsqaUBKTNV-1" source="YMXGo382ZEX8tGyxw3O1-40" target="YMXGo382ZEX8tGyxw3O1-44">
          <mxGeometry relative="1" as="geometry" />
        </mxCell>
        <mxCell id="YMXGo382ZEX8tGyxw3O1-40" value="" style="whiteSpace=wrap;html=1;fillColor=#f8cecc;strokeColor=#b85450;rounded=1;shadow=0;glass=0;" vertex="1" parent="WIyWlLk6GJQsqaUBKTNV-1">
          <mxGeometry x="770" y="497.5" width="320" height="96.5" as="geometry" />
        </mxCell>
        <mxCell id="YMXGo382ZEX8tGyxw3O1-42" value="&lt;font color=&quot;#3333ff&quot;&gt;reshard: flat_param : shard but grad not shard&lt;/font&gt;" style="text;html=1;align=center;verticalAlign=middle;whiteSpace=wrap;rounded=0;" vertex="1" parent="WIyWlLk6GJQsqaUBKTNV-1">
          <mxGeometry x="770" y="497.5" width="270" height="30" as="geometry" />
        </mxCell>
        <mxCell id="YMXGo382ZEX8tGyxw3O1-43" value="&lt;font color=&quot;#1a1a1a&quot;&gt;flat_param.data=flat_param._local_shard&lt;/font&gt;&lt;div&gt;&lt;font color=&quot;#1a1a1a&quot;&gt;(fp32)&lt;/font&gt;&lt;/div&gt;" style="rounded=1;whiteSpace=wrap;html=1;" vertex="1" parent="WIyWlLk6GJQsqaUBKTNV-1">
          <mxGeometry x="820" y="536" width="230" height="42" as="geometry" />
        </mxCell>
        <mxCell id="YMXGo382ZEX8tGyxw3O1-50" value="" style="edgeStyle=orthogonalEdgeStyle;rounded=0;orthogonalLoop=1;jettySize=auto;html=1;" edge="1" parent="WIyWlLk6GJQsqaUBKTNV-1" source="YMXGo382ZEX8tGyxw3O1-44" target="YMXGo382ZEX8tGyxw3O1-49">
          <mxGeometry relative="1" as="geometry" />
        </mxCell>
        <mxCell id="YMXGo382ZEX8tGyxw3O1-44" value="" style="whiteSpace=wrap;html=1;fillColor=#d5e8d4;strokeColor=#82b366;rounded=1;shadow=0;glass=0;" vertex="1" parent="WIyWlLk6GJQsqaUBKTNV-1">
          <mxGeometry x="760" y="337" width="340" height="102" as="geometry" />
        </mxCell>
        <mxCell id="YMXGo382ZEX8tGyxw3O1-46" value="&lt;font color=&quot;#3333ff&quot;&gt;_reduce_grad: fp32/fp16&lt;/font&gt;" style="text;html=1;align=center;verticalAlign=middle;whiteSpace=wrap;rounded=0;" vertex="1" parent="WIyWlLk6GJQsqaUBKTNV-1">
          <mxGeometry x="760" y="331.13" width="140" height="30" as="geometry" />
        </mxCell>
        <mxCell id="YMXGo382ZEX8tGyxw3O1-47" value="&lt;font color=&quot;#1a1a1a&quot;&gt;dist.reduce_scatter_tensor&lt;/font&gt;" style="rounded=1;whiteSpace=wrap;html=1;" vertex="1" parent="WIyWlLk6GJQsqaUBKTNV-1">
          <mxGeometry x="842" y="361.13" width="170" height="27.87" as="geometry" />
        </mxCell>
        <mxCell id="YMXGo382ZEX8tGyxw3O1-48" value="flat_param._saved_grad_shard += sharded_grad&lt;div&gt;(多个step可以累加操作：sharded_grad : flat_param.dtype)&lt;/div&gt;" style="text;html=1;align=center;verticalAlign=middle;whiteSpace=wrap;rounded=0;" vertex="1" parent="WIyWlLk6GJQsqaUBKTNV-1">
          <mxGeometry x="775" y="398" width="315" height="30" as="geometry" />
        </mxCell>
        <mxCell id="YMXGo382ZEX8tGyxw3O1-49" value="" style="whiteSpace=wrap;html=1;fillColor=#f8cecc;strokeColor=#b85450;rounded=1;shadow=0;glass=0;" vertex="1" parent="WIyWlLk6GJQsqaUBKTNV-1">
          <mxGeometry x="820" y="161" width="220" height="91" as="geometry" />
        </mxCell>
        <mxCell id="YMXGo382ZEX8tGyxw3O1-51" value="&lt;font color=&quot;#0000ff&quot;&gt;prepare_gradient_for_optim&lt;/font&gt;" style="text;html=1;align=center;verticalAlign=middle;whiteSpace=wrap;rounded=0;" vertex="1" parent="WIyWlLk6GJQsqaUBKTNV-1">
          <mxGeometry x="820" y="161" width="160" height="30" as="geometry" />
        </mxCell>
        <mxCell id="YMXGo382ZEX8tGyxw3O1-52" value="&lt;font color=&quot;#1a1a1a&quot;&gt;flat_param.grad =&amp;nbsp;&lt;/font&gt;&lt;div&gt;&lt;font color=&quot;#1a1a1a&quot;&gt;flat_param._saved_grad_shard&lt;/font&gt;&lt;/div&gt;" style="rounded=1;whiteSpace=wrap;html=1;" vertex="1" parent="WIyWlLk6GJQsqaUBKTNV-1">
          <mxGeometry x="842" y="197" width="175" height="40" as="geometry" />
        </mxCell>
      </root>
    </mxGraphModel>
  </diagram>
</mxfile>
